# xmcd
#
# Track frame offsets:
#	150
#	35241
#	48279
#	55047
#	69678
#	90214
#	105913
#	116931
#	117829
#	136303
#	145903
#	163301
#	177829
#	214111
#	224381
#	231630
#	247311
#
# Disc length: 3460 seconds
#
# Revision: 1
# Processed by: cddbd v1.5.2PL0 Copyright (c) Steve Scherf et al.
# Submitted via: audiograbber 1.83.01
#
DISCID=050d8211
DTITLE=Jiri Slitr - Slitr zpiva Slitra [CD4) - Dabel s Vinohrad II
DYEAR=2014
DGENRE=
TTITLE0=Jiri Slitr - Nekdy se divaci mylne domnivaji
TTITLE1=Jiri Slitr - Strangers In The Night
TTITLE2=Jiri Slitr - Kde jsem to, damy, prestal ?
TTITLE3=Jiri Slitr - Proc se lidi nemaj radi
TTITLE4=Jiri Slitr - Kdyby tady tekl Nil
TTITLE5=Jiri Slitr - Ukrejvam rozpaky
TTITLE6=Jiri Slitr - Dabel z Vinohrad
TTITLE7=Jiri Slitr - Ja vam to vidim na ocich
TTITLE8=Jiri Slitr - Pudivin
TTITLE9=Jiri Slitr - Hallelujah
TTITLE10=Jiri Slitr - Ach, miluji vas
TTITLE11=Jiri Slitr - Melancholicke blues
TTITLE12=Jiri Slitr - Calypso o stastne zemi
TTITLE13=Jiri Slitr - Pochod plebejcu
TTITLE14=Jiri Slitr - Babetta 1968
TTITLE15=Jiri Slitr - Kamaradi
TTITLE16=Jiri Slitr - Sedm darku
EXTD=
EXTT0=
EXTT1=
EXTT2=
EXTT3=
EXTT4=
EXTT5=
EXTT6=
EXTT7=
EXTT8=
EXTT9=
EXTT10=
EXTT11=
EXTT12=
EXTT13=
EXTT14=
EXTT15=
EXTT16=
PLAYORDER=
